<svg width="888" height="691" viewBox="0 0 888 691" fill="none" xmlns="http://www.w3.org/2000/svg">
<rect width="888" height="691" fill="#E5E5E5"/>
<g id="undraw_listening_1u79 1" clip-path="url(#clip0)">
<path id="Vector" d="M859.79 669.456L882.839 636.052L859.793 673.079L859.794 676.869C858.141 676.862 856.504 676.815 854.884 676.727L856.591 628.032L856.565 627.656L856.608 627.584L856.77 622.982L832.403 586.68L856.782 619.537L856.859 620.511L858.148 583.72L837.177 546.134L858.287 577.256L858.977 501.01L858.981 500.756L858.985 501.006L859.686 561.113L879.5 536.938L859.688 566.29L859.719 599.213L878.068 567.302L859.727 604.053L859.745 622.36L886.405 577.922L859.747 628.747L859.79 669.456Z" fill="#887C4F"/>
<path id="Vector_2" d="M167.646 659.711L234.053 564.664L167.594 670.063L167.536 680.89C162.813 680.842 158.137 680.68 153.51 680.404L159.2 541.312L159.132 540.237L159.254 540.032L159.795 526.889L90.7867 422.768L159.887 517.046L160.089 519.83L164.388 414.741L105.1 307.011L164.891 396.275L168.136 178.457L168.151 177.732L168.159 178.445L169.158 350.179L226.169 281.445L169.077 364.97L168.617 459.031L221.571 368.168L168.559 472.859L168.304 525.161L245.213 398.647L168.205 543.407L167.646 659.711Z" fill="#898457"/>
<path id="Vector_3" d="M444 690.605C689.214 690.605 888 683.736 888 675.263C888 666.79 689.214 659.921 444 659.921C198.786 659.921 0 666.79 0 675.263C0 683.736 198.786 690.605 444 690.605Z" fill="#DEBA72"/>
<path id="Vector_4" d="M688.634 641.505C688.676 636.016 687.541 630.581 685.305 625.568C680.615 628.934 676.75 633.32 674 638.396C671.25 633.32 667.385 628.934 662.695 625.568C660.459 630.581 659.324 636.016 659.366 641.505C654.635 638.861 649.398 637.247 644 636.769C644 636.769 645.012 649.166 653.296 657.231C660.662 664.401 671.297 665.732 673.564 665.939L673.628 665.982L673.645 665.946C673.875 665.966 674 665.973 674 665.973C674 665.973 673.981 665.739 673.927 665.316C673.95 665.261 673.974 665.203 674 665.142C674.026 665.203 674.05 665.261 674.073 665.316C674.019 665.739 674 665.973 674 665.973C674 665.973 674.125 665.966 674.355 665.946L674.372 665.982L674.436 665.939C676.703 665.732 687.338 664.401 694.704 657.231C702.988 649.166 704 636.769 704 636.769C698.602 637.247 693.365 638.861 688.634 641.505V641.505Z" fill="#6C63FF"/>
<g id="music1">
<g id="Vector_5">
<path d="M698.452 56.0956L698.499 56.0874L691.507 15.211L652.844 27.4938L658.629 64.0547C656.637 62.795 654.262 62.2847 651.928 62.615C649.594 62.9453 647.454 64.0946 645.889 65.8576C644.325 67.6206 643.438 69.8825 643.387 72.239C643.337 74.5956 644.126 76.8933 645.614 78.7217C647.101 80.55 649.191 81.7899 651.508 82.2197C653.826 82.6496 656.221 82.2414 658.265 81.0681C660.309 79.8948 661.87 78.0329 662.668 75.815C663.466 73.5971 663.449 71.1677 662.621 68.9609L662.657 68.9553L656.448 29.7191L688.963 19.3894L694.49 51.7023C692.45 50.4957 690.046 50.0599 687.712 50.4738C685.378 50.8877 683.27 52.124 681.769 53.9585C680.269 55.7931 679.475 58.1046 679.532 60.474C679.589 62.8435 680.493 65.1141 682.08 66.8743C683.667 68.6346 685.833 69.768 688.184 70.0692C690.534 70.3703 692.916 69.8193 694.895 68.5159C696.875 67.2126 698.322 65.2432 698.974 62.9646C699.627 60.6861 699.441 58.2492 698.452 56.0956V56.0956Z" fill="url(#paint0_linear)"/>
<path d="M698.452 56.0956L698.499 56.0874L691.507 15.211L652.844 27.4938L658.629 64.0547C656.637 62.795 654.262 62.2847 651.928 62.615C649.594 62.9453 647.454 64.0946 645.889 65.8576C644.325 67.6206 643.438 69.8825 643.387 72.239C643.337 74.5956 644.126 76.8933 645.614 78.7217C647.101 80.55 649.191 81.7899 651.508 82.2197C653.826 82.6496 656.221 82.2414 658.265 81.0681C660.309 79.8948 661.87 78.0329 662.668 75.815C663.466 73.5971 663.449 71.1677 662.621 68.9609L662.657 68.9553L656.448 29.7191L688.963 19.3894L694.49 51.7023C692.45 50.4957 690.046 50.0599 687.712 50.4738C685.378 50.8877 683.27 52.124 681.769 53.9585C680.269 55.7931 679.475 58.1046 679.532 60.474C679.589 62.8435 680.493 65.1141 682.08 66.8743C683.667 68.6346 685.833 69.768 688.184 70.0692C690.534 70.3703 692.916 69.8193 694.895 68.5159C696.875 67.2126 698.322 65.2432 698.974 62.9646C699.627 60.6861 699.441 58.2492 698.452 56.0956V56.0956Z" fill="url(#paint1_linear)"/>
</g>
</g>
<g id="music3">
<g id="Vector_6">
<path d="M883.551 71.7375L883.598 71.7294L876.606 30.8529L837.943 43.1358L843.728 79.6966C841.736 78.4369 839.361 77.9266 837.027 78.2569C834.693 78.5872 832.553 79.7365 830.988 81.4995C829.423 83.2626 828.537 85.5244 828.486 87.881C828.436 90.2375 829.225 92.5353 830.713 94.3636C832.2 96.192 834.289 97.4319 836.607 97.8617C838.925 98.2916 841.32 97.8834 843.364 96.7101C845.408 95.5368 846.969 93.6749 847.767 91.457C848.565 89.2391 848.548 86.8097 847.72 84.6029L847.756 84.5972L841.547 45.361L874.062 35.0313L879.589 67.3442C877.55 66.1376 875.145 65.7018 872.811 66.1157C870.477 66.5297 868.369 67.7659 866.869 69.6005C865.368 71.435 864.574 73.7465 864.631 76.1159C864.688 78.4854 865.592 80.756 867.179 82.5162C868.767 84.2765 870.932 85.4099 873.283 85.711C875.634 86.0122 878.015 85.4612 879.994 84.1578C881.974 82.8545 883.421 80.8851 884.073 78.6065C884.726 76.328 884.54 73.8911 883.551 71.7375V71.7375Z" fill="url(#paint2_linear)"/>
<path d="M883.551 71.7375L883.598 71.7294L876.606 30.8529L837.943 43.1358L843.728 79.6966C841.736 78.4369 839.361 77.9266 837.027 78.2569C834.693 78.5872 832.553 79.7365 830.988 81.4995C829.423 83.2626 828.537 85.5244 828.486 87.881C828.436 90.2375 829.225 92.5353 830.713 94.3636C832.2 96.192 834.289 97.4319 836.607 97.8617C838.925 98.2916 841.32 97.8834 843.364 96.7101C845.408 95.5368 846.969 93.6749 847.767 91.457C848.565 89.2391 848.548 86.8097 847.72 84.6029L847.756 84.5972L841.547 45.361L874.062 35.0313L879.589 67.3442C877.55 66.1376 875.145 65.7018 872.811 66.1157C870.477 66.5297 868.369 67.7659 866.869 69.6005C865.368 71.435 864.574 73.7465 864.631 76.1159C864.688 78.4854 865.592 80.756 867.179 82.5162C868.767 84.2765 870.932 85.4099 873.283 85.711C875.634 86.0122 878.015 85.4612 879.994 84.1578C881.974 82.8545 883.421 80.8851 884.073 78.6065C884.726 76.328 884.54 73.8911 883.551 71.7375V71.7375Z" fill="url(#paint3_linear)"/>
</g>
</g>
<g id="music2">
<g id="Vector_7">
<path d="M751.253 101.068L751.28 101.064L746.299 69.5829L743.839 69.9721L748.157 97.2641C746.612 96.2875 744.771 95.8919 742.961 96.148C741.152 96.4041 739.492 97.2953 738.279 98.6623C737.066 100.029 736.378 101.783 736.339 103.61C736.3 105.438 736.912 107.219 738.066 108.637C739.219 110.054 740.839 111.016 742.636 111.349C744.433 111.682 746.29 111.366 747.875 110.456C749.46 109.546 750.67 108.103 751.289 106.383C751.908 104.663 751.895 102.779 751.253 101.068V101.068Z" fill="url(#paint4_linear)"/>
<path d="M751.253 101.068L751.28 101.064L746.299 69.5829L743.839 69.9721L748.157 97.2641C746.612 96.2875 744.771 95.8919 742.961 96.148C741.152 96.4041 739.492 97.2953 738.279 98.6623C737.066 100.029 736.378 101.783 736.339 103.61C736.3 105.438 736.912 107.219 738.066 108.637C739.219 110.054 740.839 111.016 742.636 111.349C744.433 111.682 746.29 111.366 747.875 110.456C749.46 109.546 750.67 108.103 751.289 106.383C751.908 104.663 751.895 102.779 751.253 101.068V101.068Z" fill="url(#paint5_linear)"/>
</g>
<g id="Vector_8">
<path d="M793.512 61.9838C793.516 60.2775 792.952 58.6184 791.91 57.2677C790.867 55.917 789.405 54.9514 787.753 54.5231C786.102 54.0947 784.354 54.2279 782.787 54.9017C781.219 55.5755 779.92 56.7516 779.094 58.2447C778.269 59.7379 777.963 61.4633 778.226 63.1492C778.488 64.8352 779.304 66.3859 780.545 67.5572C781.786 68.7284 783.381 69.4537 785.079 69.6188C786.777 69.7839 788.482 69.3794 789.925 68.469L785.607 95.761L788.067 96.1501L793.048 64.669L793.021 64.6646C793.344 63.8077 793.51 62.8996 793.512 61.9838V61.9838Z" fill="url(#paint6_linear)"/>
<path d="M793.512 61.9838C793.516 60.2775 792.952 58.6184 791.91 57.2677C790.867 55.917 789.405 54.9514 787.753 54.5231C786.102 54.0947 784.354 54.2279 782.787 54.9017C781.219 55.5755 779.92 56.7516 779.094 58.2447C778.269 59.7379 777.963 61.4633 778.226 63.1492C778.488 64.8352 779.304 66.3859 780.545 67.5572C781.786 68.7284 783.381 69.4537 785.079 69.6188C786.777 69.7839 788.482 69.3794 789.925 68.469L785.607 95.761L788.067 96.1501L793.048 64.669L793.021 64.6646C793.344 63.8077 793.51 62.8996 793.512 61.9838V61.9838Z" fill="url(#paint7_linear)"/>
</g>
</g>
<path id="Vector_9" d="M473.448 554.881L488.023 576.744L509.886 559.74L495.311 541.52L473.448 554.881Z" fill="#FFB8B8"/>
<path id="Vector_10" d="M490.839 565.013C490.839 565.013 469.964 565.983 475.849 577.018C481.733 588.052 486.323 650.314 503.117 646.707C519.911 643.099 535.137 624.016 534.951 610.879C534.764 597.743 532.662 592.045 532.662 592.045C532.662 592.045 528.159 583.35 531.157 580.949C534.155 578.548 535.287 563.371 528.146 558.756C521.006 554.141 500.368 548.033 500.368 548.033C500.368 548.033 498.278 566.929 490.839 565.013Z" fill="#2F2E41"/>
<path id="Vector_11" d="M501.384 605.895L496.525 632.616L522.032 635.045V614.397L501.384 605.895Z" fill="#FFB8B8"/>
<path id="Vector_12" d="M449.156 243.942C449.156 243.942 435.795 288.883 432.151 315.604C432.151 315.604 359.275 413.987 372.636 456.498C385.996 499.009 424.864 584.032 424.864 584.032C424.864 584.032 490.452 557.31 503.813 542.735L455.229 473.503C455.229 473.503 462.516 465 451.585 460.142C440.654 455.284 450.37 449.211 450.37 449.211C450.37 449.211 471.019 379.978 491.667 372.69L563.329 358.115C563.329 358.115 558.47 254.874 541.466 236.655C541.466 236.655 456.443 237.869 449.156 243.942Z" fill="#2F2E41"/>
<path id="Vector_13" d="M507.457 621.684C507.457 621.684 495.311 604.68 489.238 615.611C483.165 626.543 433.366 664.196 445.512 676.342C457.658 688.488 481.95 690.917 492.882 683.629C503.813 676.342 507.457 671.483 507.457 671.483C507.457 671.483 512.315 662.981 515.959 664.196C519.603 665.41 532.963 658.123 532.963 649.62C532.963 641.118 526.89 620.47 526.89 620.47C526.89 620.47 509.886 628.972 507.457 621.684Z" fill="#2F2E41"/>
<path id="Vector_14" d="M489.238 364.188L506.242 511.155C506.242 511.155 496.525 552.452 494.096 584.032C491.667 615.611 494.096 614.397 494.096 614.397C494.096 614.397 548.753 636.26 558.47 621.684C568.187 607.109 563.329 358.115 563.329 358.115L534.178 331.394L489.238 364.188Z" fill="#2F2E41"/>
<g id="Vector_15">
<path d="M438.522 65.287C455.078 11.4687 497.223 1.30454 497.223 1.30454C497.223 1.30454 537.803 -13.6098 571.692 57.4192C603.28 123.624 644.014 185.652 592.355 212.078L578.709 172.596L577.072 218.033C569.56 220.188 561.968 221.776 554.33 222.788C497.031 230.807 443.017 244.142 442.017 215.613C440.687 177.688 422.592 117.071 438.522 65.287Z" fill="#5148F0"/>
<path d="M438.522 65.287C455.078 11.4687 497.223 1.30454 497.223 1.30454C497.223 1.30454 537.803 -13.6098 571.692 57.4192C603.28 123.624 644.014 185.652 592.355 212.078L578.709 172.596L577.072 218.033C569.56 220.188 561.968 221.776 554.33 222.788C497.031 230.807 443.017 244.142 442.017 215.613C440.687 177.688 422.592 117.071 438.522 65.287Z" fill="url(#paint8_linear)"/>
</g>
<path id="Vector_16" d="M511.101 94.5461C530.554 94.5461 546.324 78.7759 546.324 59.3225C546.324 39.8691 530.554 24.099 511.101 24.099C491.647 24.099 475.877 39.8691 475.877 59.3225C475.877 78.7759 491.647 94.5461 511.101 94.5461Z" fill="#FFB8B8"/>
<path id="Vector_17" d="M500.776 81.7927C500.776 81.7927 500.169 117.624 496.525 126.126C492.882 134.628 561.507 119.445 561.507 119.445C561.507 119.445 537.215 102.441 533.571 79.3635L500.776 81.7927Z" fill="#FFB8B8"/>
<path id="Vector_18" d="M506.242 111.551L499.609 106.672L452.8 109.121L443.083 216.007C443.083 216.007 415.147 248.801 449.156 248.801C483.165 248.801 514.744 233.011 539.037 243.942C563.329 254.874 583.977 128.555 583.977 128.555L547.664 106.672C547.664 106.672 531.749 126.126 506.242 111.551Z" fill="#575A89"/>
<path id="Vector_19" d="M466.16 197.787L534.178 212.363V228.153L466.16 230.582C466.16 230.582 458.873 202.646 466.16 197.787Z" fill="#FFB8B8"/>
<path id="Vector_20" d="M466.16 115.194L452.8 109.121C452.8 109.121 437.01 112.765 435.795 126.126C434.581 139.486 411.503 225.723 429.722 229.367C447.941 233.011 472.233 233.011 472.233 233.011C472.233 233.011 456.443 211.148 475.877 199.002L461.302 191.714C461.302 191.714 446.727 158.92 456.443 141.916C466.16 124.911 466.16 115.194 466.16 115.194Z" fill="#575A89"/>
<path id="Vector_21" d="M466.716 25.283L498.883 8.43301L543.306 15.326L552.496 55.919L529.618 55.039L523.226 40.126V54.793L512.67 54.387L506.542 30.644L502.713 55.919L465.184 55.153L466.716 25.283Z" fill="black"/>
<path id="Vector_22" d="M546.527 67.2243C550.104 67.2243 553.004 62.1489 553.004 55.888C553.004 49.6272 550.104 44.5518 546.527 44.5518C542.949 44.5518 540.049 49.6272 540.049 55.888C540.049 62.1489 542.949 67.2243 546.527 67.2243Z" fill="#FFB8B8"/>
<path id="Vector_23" d="M547.149 63.9132C549.591 63.9132 551.57 61.9339 551.57 59.4923C551.57 57.0507 549.591 55.0714 547.149 55.0714C544.708 55.0714 542.728 57.0507 542.728 59.4923C542.728 61.9339 544.708 63.9132 547.149 63.9132Z" fill="white"/>
<path id="Vector_24" d="M549.047 60.9826C549.444 60.9826 549.766 60.0173 549.766 58.8266C549.766 57.6359 549.444 56.6707 549.047 56.6707C548.651 56.6707 548.329 57.6359 548.329 58.8266C548.329 60.0173 548.651 60.9826 549.047 60.9826Z" fill="#2F2E41"/>
<path id="Vector_25" d="M548.933 72.3244C548.633 72.3244 548.345 72.2052 548.133 71.9931C547.921 71.781 547.802 71.4933 547.802 71.1934L546.671 62.1451H550.064V71.1934C550.064 71.3419 550.035 71.489 549.978 71.6262C549.921 71.7634 549.838 71.8881 549.733 71.9931C549.628 72.0982 549.503 72.1815 549.366 72.2383C549.229 72.2951 549.082 72.3244 548.933 72.3244V72.3244Z" fill="white"/>
<path id="Vector_26" opacity="0.1" d="M460.723 148.149L449.254 197.85H476.016L454.989 193.071L460.723 148.149Z" fill="black"/>
<path id="Vector_27" d="M598.894 230.252L598.64 230.023L604.918 223.057C605.395 222.527 605.763 221.909 606.002 221.237C606.24 220.566 606.343 219.853 606.306 219.142C606.269 218.43 606.093 217.732 605.786 217.089C605.48 216.445 605.049 215.869 604.52 215.391L589.762 202.091C589.232 201.613 588.614 201.245 587.942 201.007C587.27 200.769 586.558 200.665 585.846 200.702C585.135 200.739 584.437 200.916 583.794 201.222C583.15 201.529 582.573 201.959 582.096 202.489L547.654 240.704C547.177 241.234 546.809 241.852 546.571 242.524C546.333 243.196 546.229 243.908 546.266 244.62C546.303 245.331 546.48 246.029 546.786 246.672C547.093 247.316 547.523 247.893 548.053 248.37L562.811 261.671C563.34 262.148 563.959 262.516 564.63 262.754C565.302 262.993 566.014 263.096 566.726 263.059C567.438 263.022 568.135 262.845 568.779 262.539C569.422 262.232 569.999 261.802 570.476 261.273L594.171 234.981L594.425 235.21L598.894 230.252Z" fill="#3F3D56"/>
<path id="Vector_28" d="M587.316 223.395C589.248 223.395 590.814 221.829 590.814 219.898C590.814 217.966 589.248 216.4 587.316 216.4C585.385 216.4 583.819 217.966 583.819 219.898C583.819 221.829 585.385 223.395 587.316 223.395Z" fill="#6C63FF"/>
<path id="Vector_29" d="M563.063 217.789C563.063 217.789 604.467 227.811 594.927 242.099C585.388 256.387 547.725 230.271 547.725 230.271L563.063 217.789Z" fill="#FFB8B8"/>
<path id="Vector_30" d="M573.045 128.555H583.977C583.977 128.555 596.123 141.916 593.694 154.062C591.265 166.208 583.977 223.294 583.977 223.294C583.977 223.294 547.539 257.303 529.32 239.084C511.101 220.865 524.461 203.86 524.461 203.86C524.461 203.86 548.753 223.294 562.114 197.787L573.045 128.555Z" fill="#575A89"/>
<path id="Vector_31" d="M562.182 211.365L570.548 128.713C570.548 128.713 588.095 76.5341 570.966 75.2552C553.836 73.9764 552.633 124.7 552.633 124.7L522.799 215.143C522.799 215.143 539.172 231.178 562.182 211.365Z" fill="#FFB8B8"/>
</g>
<defs>
<linearGradient id="paint0_linear" x1="671.371" y1="15.211" x2="671.371" y2="82.3863" gradientUnits="userSpaceOnUse">
<stop offset="0.9999" stop-color="#8849B9"/>
<stop offset="1" stop-color="#8849B9" stop-opacity="0"/>
</linearGradient>
<linearGradient id="paint1_linear" x1="671.371" y1="15.211" x2="671.371" y2="82.3863" gradientUnits="userSpaceOnUse">
<stop offset="0.278096" stop-color="#E51F1F"/>
<stop offset="1" stop-color="white" stop-opacity="0"/>
</linearGradient>
<linearGradient id="paint2_linear" x1="856.47" y1="30.8529" x2="856.47" y2="98.0283" gradientUnits="userSpaceOnUse">
<stop offset="0.19476" stop-color="#524AD7" stop-opacity="0"/>
<stop offset="0.632274" stop-color="#5E55F0"/>
</linearGradient>
<linearGradient id="paint3_linear" x1="856.47" y1="30.8529" x2="856.47" y2="98.0283" gradientUnits="userSpaceOnUse">
<stop stop-color="#00FF38"/>
<stop offset="1" stop-color="white" stop-opacity="0"/>
</linearGradient>
<linearGradient id="paint4_linear" x1="744.041" y1="69.5829" x2="744.041" y2="111.478" gradientUnits="userSpaceOnUse">
<stop stop-color="#7B73F1" stop-opacity="0"/>
<stop offset="0.814571" stop-color="#3024FF"/>
</linearGradient>
<linearGradient id="paint5_linear" x1="744.041" y1="69.5829" x2="744.041" y2="111.478" gradientUnits="userSpaceOnUse">
<stop stop-color="#D21CFF"/>
<stop offset="1" stop-color="white" stop-opacity="0"/>
</linearGradient>
<linearGradient id="paint6_linear" x1="785.823" y1="54.2769" x2="785.823" y2="96.1501" gradientUnits="userSpaceOnUse">
<stop stop-color="#7B73F1" stop-opacity="0"/>
<stop offset="0.814571" stop-color="#3024FF"/>
</linearGradient>
<linearGradient id="paint7_linear" x1="785.823" y1="54.2769" x2="785.823" y2="96.1501" gradientUnits="userSpaceOnUse">
<stop stop-color="#D21CFF"/>
<stop offset="1" stop-color="white" stop-opacity="0"/>
</linearGradient>
<linearGradient id="paint8_linear" x1="524.5" y1="0" x2="524.5" y2="233" gradientUnits="userSpaceOnUse">
<stop offset="0.449977"/>
<stop offset="1" stop-color="white" stop-opacity="0"/>
</linearGradient>
<clipPath id="clip0">
<rect width="888" height="690.605" fill="white"/>
</clipPath>
</defs>
</svg>
