<svg width="300" height="91" viewBox="0 0 300 91" fill="none" xmlns="http://www.w3.org/2000/svg">
<ellipse cx="5.71333" cy="62.5211" rx="5.71333" ry="6.22282" fill="#C4C4C4"/>
<rect width="15.4238" height="67.7299" rx="7.7119" transform="matrix(0.919515 -0.393054 0.338992 0.940789 5.71333 6.35538)" fill="#C4C4C4"/>
<path d="M78.568 62.6504L96.3009 13.4422C97.7449 9.43525 95.7406 4.82975 91.8243 3.15552C87.908 1.48129 83.5626 3.37232 82.1187 7.37926L64.3858 56.5875C62.9418 60.5945 64.9461 65.2 68.8624 66.8742C72.7787 68.5484 77.1241 66.6574 78.568 62.6504Z" fill="#C4C4C4"/>
<rect width="15.9541" height="41.1867" rx="7.97703" transform="matrix(0.662855 0.748748 -0.689581 0.724209 53.1593 27.2585)" fill="#C4C4C4"/>
<path d="M64.1678 65.6519C66.8418 69.1897 71.6426 69.6966 74.8907 66.7842C78.1388 63.8717 78.6043 58.6428 75.9303 55.1051L60.5376 34.7401C57.8636 31.2024 53.0628 30.6954 49.8147 33.6079C46.5666 36.5203 46.1012 41.7492 48.7752 45.287L64.1678 65.6519Z" fill="#C4C4C4"/>
<rect width="15.4238" height="67.7297" rx="7.71192" transform="matrix(0.919501 -0.393088 0.339023 0.940778 79.3852 7.7336)" fill="#C4C4C4"/>
<path d="M117.551 9.70942C116.014 5.44387 111.593 3.34318 107.677 5.01741C103.76 6.69164 101.832 11.5068 103.369 15.7723L120.764 64.0441C122.301 68.3096 126.722 70.4103 130.638 68.7361C134.555 67.0618 136.483 62.2467 134.946 57.9811L117.551 9.70942Z" fill="#C4C4C4"/>
<rect width="15.4238" height="67.7297" rx="7.71192" transform="matrix(0.919501 0.393088 -0.339023 0.940778 142.592 1.98595)" fill="#C4C4C4"/>
<path d="M167.703 63.478C167.383 62.326 166.815 61.542 165.999 61.126C165.183 60.694 164.095 60.478 162.735 60.478C159.471 60.478 157.839 61.678 157.839 64.078C157.839 65.006 158.111 65.734 158.655 66.262C159.215 66.79 159.887 67.134 160.671 67.294C161.439 67.454 162.215 67.582 162.999 67.678C163.783 67.774 164.447 67.942 164.991 68.182C165.551 68.422 165.831 68.806 165.831 69.334C165.831 70.102 165.599 70.646 165.135 70.966C164.671 71.286 163.927 71.446 162.903 71.446C160.791 71.446 159.615 70.902 159.375 69.814L157.527 70.174C157.927 72.382 159.719 73.486 162.903 73.486C164.567 73.486 165.823 73.134 166.671 72.43C167.503 71.726 167.919 70.87 167.919 69.862C167.919 68.838 167.647 68.054 167.103 67.51C166.559 66.95 165.903 66.582 165.135 66.406C164.351 66.23 163.567 66.086 162.783 65.974C162.015 65.878 161.359 65.694 160.815 65.422C160.271 65.15 159.999 64.734 159.999 64.174C159.999 63.598 160.143 63.182 160.431 62.926C160.719 62.654 161.151 62.494 161.727 62.446C161.935 62.43 162.351 62.422 162.975 62.422C163.615 62.422 164.207 62.494 164.751 62.638C165.423 62.798 165.871 63.23 166.095 63.934L167.703 63.478ZM176.786 71.158C176.37 71.574 175.73 71.782 174.866 71.782C173.538 71.782 172.874 71.126 172.874 69.814V62.806H176.45V61.054H172.874V57.334H170.69V61.054H168.938V62.806H170.69V70.15C170.69 72.406 171.794 73.534 174.002 73.534C175.586 73.534 176.562 73.03 176.93 72.022L176.786 71.158ZM186.039 64.534L185.991 64.87C182.087 64.95 179.663 65.734 178.719 67.222C178.239 68.022 177.999 68.934 177.999 69.958V70.03C177.999 71.022 178.399 71.87 179.199 72.574C179.999 73.278 181.175 73.63 182.727 73.63C184.135 73.47 185.223 72.726 185.991 71.398C186.055 72.326 186.415 72.982 187.071 73.366L188.823 73.414C188.343 72.454 188.103 71.654 188.103 71.014V65.59C188.103 62.166 186.527 60.454 183.375 60.454H183.255C181.095 60.454 179.383 61.086 178.119 62.35L179.319 63.502C180.279 62.606 181.639 62.158 183.399 62.158C185.159 62.158 186.039 62.95 186.039 64.534ZM180.567 71.014C180.327 70.678 180.207 70.254 180.207 69.742C180.207 68.814 180.703 68.054 181.695 67.462C182.687 66.854 184.119 66.518 185.991 66.454V68.35C185.991 68.526 185.935 68.774 185.823 69.094C185.551 70.006 185.143 70.638 184.599 70.99C184.071 71.358 183.327 71.542 182.367 71.542C181.391 71.542 180.791 71.366 180.567 71.014ZM197.763 71.158C197.347 71.574 196.707 71.782 195.843 71.782C194.515 71.782 193.851 71.126 193.851 69.814V62.806H197.427V61.054H193.851V57.334H191.667V61.054H189.915V62.806H191.667V70.15C191.667 72.406 192.771 73.534 194.979 73.534C196.563 73.534 197.539 73.03 197.907 72.022L197.763 71.158ZM200.055 58.942H202.455V56.59H200.055V58.942ZM200.223 73.438H202.407V60.862H200.223V73.438ZM215.122 62.254C213.954 60.99 212.514 60.358 210.802 60.358C209.074 60.358 207.65 60.99 206.53 62.254C205.41 63.518 204.85 65.102 204.85 67.006C204.85 68.91 205.41 70.526 206.53 71.854C207.65 73.182 209.066 73.846 210.778 73.846C212.49 73.846 213.93 73.182 215.098 71.854C216.282 70.526 216.874 68.91 216.874 67.006C216.874 65.102 216.29 63.518 215.122 62.254ZM208.042 63.574C208.698 62.63 209.594 62.158 210.73 62.158C211.866 62.158 212.77 62.63 213.442 63.574C214.114 64.502 214.45 65.63 214.45 66.958C214.45 68.286 214.114 69.47 213.442 70.51C212.754 71.534 211.842 72.046 210.706 72.046C209.57 72.046 208.674 71.526 208.018 70.486C207.378 69.462 207.058 68.294 207.058 66.982C207.058 65.654 207.386 64.518 208.042 63.574ZM227.411 73.438H229.643V65.086C229.643 62.014 228.027 60.47 224.795 60.454C224.027 60.454 223.251 60.726 222.467 61.27C221.667 61.798 221.091 62.526 220.739 63.454V60.502H218.507V73.438H220.739V67.246C220.739 65.678 221.091 64.494 221.795 63.694C222.483 62.894 223.467 62.494 224.747 62.494C226.523 62.494 227.411 63.566 227.411 65.71V73.438Z" fill="#C4C4C4"/>
<path d="M167.703 63.478L167.839 63.959L168.318 63.8233L168.184 63.3441L167.703 63.478ZM165.999 61.126L165.765 61.5679L165.772 61.5714L165.999 61.126ZM158.655 66.262L158.306 66.6208L158.312 66.6258L158.655 66.262ZM160.671 67.294L160.773 66.8045L160.771 66.8041L160.671 67.294ZM162.999 67.678L163.059 67.1817L163.059 67.1817L162.999 67.678ZM164.991 68.182L164.789 68.6395L164.794 68.6415L164.991 68.182ZM165.135 70.966L165.419 71.3776L165.419 71.3776L165.135 70.966ZM159.375 69.814L159.863 69.7063L159.758 69.2299L159.279 69.3232L159.375 69.814ZM157.527 70.174L157.431 69.6832L156.947 69.7775L157.035 70.2631L157.527 70.174ZM166.671 72.43L166.99 72.8147L166.994 72.8117L166.671 72.43ZM167.103 67.51L166.744 67.8584L166.749 67.8635L167.103 67.51ZM165.135 66.406L165.246 65.9186L165.244 65.9181L165.135 66.406ZM162.783 65.974L162.853 65.4789L162.845 65.4778L162.783 65.974ZM160.815 65.422L161.038 64.9748L161.038 64.9748L160.815 65.422ZM160.431 62.926L160.763 63.2997L160.769 63.2947L160.774 63.2895L160.431 62.926ZM161.727 62.446L161.688 61.9474L161.685 61.9477L161.727 62.446ZM164.751 62.638L164.623 63.1215L164.635 63.1244L164.751 62.638ZM166.095 63.934L165.618 64.0856L165.765 64.5472L166.231 64.415L166.095 63.934ZM168.184 63.3441C167.839 62.1007 167.202 61.1781 166.226 60.6805L165.772 61.5714C166.428 61.9058 166.926 62.5513 167.221 63.6118L168.184 63.3441ZM166.233 60.6841C165.319 60.2001 164.141 59.978 162.735 59.978V60.978C164.049 60.978 165.047 61.1878 165.765 61.5679L166.233 60.6841ZM162.735 59.978C161.056 59.978 159.707 60.2839 158.767 60.9751C157.798 61.6875 157.339 62.7522 157.339 64.078H158.339C158.339 63.0037 158.696 62.2685 159.359 61.7808C160.051 61.272 161.149 60.978 162.735 60.978V59.978ZM157.339 64.078C157.339 65.1088 157.644 65.9782 158.306 66.6208L159.003 65.9032C158.577 65.4897 158.339 64.9031 158.339 64.078H157.339ZM158.312 66.6258C158.942 67.2202 159.699 67.606 160.571 67.7839L160.771 66.8041C160.074 66.6619 159.487 66.3597 158.998 65.8982L158.312 66.6258ZM160.569 67.7835C161.35 67.9463 162.14 68.0766 162.938 68.1743L163.059 67.1817C162.289 67.0874 161.527 66.9616 160.773 66.8045L160.569 67.7835ZM162.938 68.1743C163.688 68.2661 164.302 68.4245 164.789 68.6394L165.193 67.7245C164.592 67.4594 163.877 67.2818 163.059 67.1817L162.938 68.1743ZM164.794 68.6415C165.014 68.7359 165.143 68.8429 165.217 68.9446C165.287 69.0415 165.331 69.1635 165.331 69.334H166.331C166.331 68.9764 166.234 68.6424 166.025 68.3554C165.819 68.073 165.527 67.868 165.188 67.7224L164.794 68.6415ZM165.331 69.334C165.331 70.0027 165.134 70.3594 164.851 70.5544L165.419 71.3776C166.064 70.9325 166.331 70.2012 166.331 69.334H165.331ZM164.851 70.5544C164.515 70.7863 163.897 70.946 162.903 70.946V71.946C163.956 71.946 164.827 71.7856 165.419 71.3776L164.851 70.5544ZM162.903 70.946C161.879 70.946 161.14 70.8124 160.647 70.5842C160.174 70.3656 159.944 70.0717 159.863 69.7063L158.886 69.9217C159.046 70.6443 159.523 71.1663 160.227 71.4918C160.909 71.8075 161.814 71.946 162.903 71.946V70.946ZM159.279 69.3232L157.431 69.6832L157.622 70.6647L159.47 70.3047L159.279 69.3232ZM157.035 70.2631C157.258 71.4964 157.883 72.4518 158.908 73.0837C159.914 73.7031 161.262 73.986 162.903 73.986V72.986C161.359 72.986 160.22 72.7169 159.433 72.2323C158.667 71.7601 158.195 71.0595 158.019 70.0848L157.035 70.2631ZM162.903 73.986C164.626 73.986 166.017 73.6229 166.99 72.8147L166.351 72.0453C165.629 72.645 164.507 72.986 162.903 72.986V73.986ZM166.994 72.8117C167.928 72.0214 168.419 71.0301 168.419 69.862H167.419C167.419 70.7099 167.078 71.4305 166.348 72.0483L166.994 72.8117ZM168.419 69.862C168.419 68.7507 168.122 67.822 167.456 67.1564L166.749 67.8635C167.172 68.2859 167.419 68.9252 167.419 69.862H168.419ZM167.461 67.1616C166.85 66.5317 166.107 66.1159 165.246 65.9186L165.023 66.8933C165.698 67.048 166.268 67.3682 166.744 67.8584L167.461 67.1616ZM165.244 65.9181C164.448 65.7393 163.651 65.5929 162.853 65.479L162.712 66.4689C163.483 66.5791 164.254 66.7207 165.025 66.8938L165.244 65.9181ZM162.845 65.4778C162.118 65.387 161.52 65.2156 161.038 64.9748L160.591 65.8692C161.197 66.1724 161.911 66.3689 162.721 66.4701L162.845 65.4778ZM161.038 64.9748C160.828 64.8695 160.699 64.7513 160.621 64.6323C160.545 64.5157 160.499 64.3695 160.499 64.174H159.499C159.499 64.5384 159.588 64.8802 159.784 65.1796C159.978 65.4766 160.258 65.7024 160.591 65.8692L161.038 64.9748ZM160.499 64.174C160.499 63.6695 160.625 63.422 160.763 63.2997L160.099 62.5523C159.66 62.942 159.499 63.5264 159.499 64.174H160.499ZM160.774 63.2895C160.949 63.124 161.255 62.987 161.768 62.9442L161.685 61.9477C161.046 62.0009 160.488 62.1839 160.087 62.5625L160.774 63.2895ZM161.765 62.9445C161.951 62.9302 162.348 62.922 162.975 62.922V61.922C162.354 61.922 161.919 61.9297 161.688 61.9474L161.765 62.9445ZM162.975 62.922C163.577 62.922 164.126 62.9898 164.623 63.1213L164.879 62.1546C164.288 61.9982 163.652 61.922 162.975 61.922V62.922ZM164.635 63.1244C165.122 63.2404 165.443 63.5346 165.618 64.0856L166.571 63.7824C166.298 62.9253 165.723 62.3555 164.867 62.1516L164.635 63.1244ZM166.231 64.415L167.839 63.959L167.566 62.9969L165.958 63.4529L166.231 64.415ZM176.786 71.158L177.279 71.0758L177.119 70.1174L176.432 70.8044L176.786 71.158ZM172.874 62.806V62.306H172.374V62.806H172.874ZM176.45 62.806V63.306H176.95V62.806H176.45ZM176.45 61.054H176.95V60.554H176.45V61.054ZM172.874 61.054H172.374V61.554H172.874V61.054ZM172.874 57.334H173.374V56.834H172.874V57.334ZM170.69 57.334V56.834H170.19V57.334H170.69ZM170.69 61.054V61.554H171.19V61.054H170.69ZM168.938 61.054V60.554H168.438V61.054H168.938ZM168.938 62.806H168.438V63.306H168.938V62.806ZM170.69 62.806H171.19V62.306H170.69V62.806ZM176.93 72.022L177.4 72.1934L177.445 72.0697L177.423 71.9398L176.93 72.022ZM176.432 70.8044C176.146 71.0904 175.659 71.282 174.866 71.282V72.282C175.801 72.282 176.594 72.0575 177.14 71.5115L176.432 70.8044ZM174.866 71.282C174.278 71.282 173.928 71.1368 173.723 70.9343C173.52 70.7329 173.374 70.3914 173.374 69.814H172.374C172.374 70.5486 172.56 71.191 173.021 71.6457C173.48 72.0992 174.126 72.282 174.866 72.282V71.282ZM173.374 69.814V62.806H172.374V69.814H173.374ZM172.874 63.306H176.45V62.306H172.874V63.306ZM176.95 62.806V61.054H175.95V62.806H176.95ZM176.45 60.554H172.874V61.554H176.45V60.554ZM173.374 61.054V57.334H172.374V61.054H173.374ZM172.874 56.834H170.69V57.834H172.874V56.834ZM170.19 57.334V61.054H171.19V57.334H170.19ZM170.69 60.554H168.938V61.554H170.69V60.554ZM168.438 61.054V62.806H169.438V61.054H168.438ZM168.938 63.306H170.69V62.306H168.938V63.306ZM170.19 62.806V70.15H171.19V62.806H170.19ZM170.19 70.15C170.19 71.3524 170.484 72.3465 171.161 73.0377C171.839 73.7309 172.818 74.034 174.002 74.034V73.034C172.978 73.034 172.301 72.7731 171.875 72.3382C171.448 71.9014 171.19 71.2036 171.19 70.15H170.19ZM174.002 74.034C174.841 74.034 175.568 73.9014 176.151 73.6002C176.748 73.2922 177.172 72.8183 177.4 72.1934L176.46 71.8505C176.32 72.2336 176.072 72.5158 175.693 72.7117C175.3 72.9145 174.747 73.034 174.002 73.034V74.034ZM177.423 71.9398L177.279 71.0758L176.293 71.2402L176.437 72.1042L177.423 71.9398ZM186.039 64.534L186.534 64.6047L186.539 64.5695V64.534H186.039ZM185.991 64.87L186.001 65.3699L186.426 65.3612L186.486 64.9407L185.991 64.87ZM178.719 67.222L178.297 66.954L178.29 66.9647L178.719 67.222ZM179.199 72.574L178.869 72.9493L178.869 72.9493L179.199 72.574ZM182.727 73.63V74.13H182.755L182.783 74.1268L182.727 73.63ZM185.991 71.398L186.49 71.3636L186.377 69.7313L185.558 71.1477L185.991 71.398ZM187.071 73.366L186.818 73.7975L186.929 73.8623L187.057 73.8658L187.071 73.366ZM188.823 73.414L188.809 73.9138L189.643 73.9366L189.27 73.1904L188.823 73.414ZM178.119 62.35L177.765 61.9964L177.405 62.3573L177.773 62.7107L178.119 62.35ZM179.319 63.502L178.973 63.8627L179.314 64.1904L179.66 63.8675L179.319 63.502ZM180.567 71.014L180.989 70.7455L180.982 70.7342L180.974 70.7233L180.567 71.014ZM181.695 67.462L181.951 67.8914L181.956 67.8883L181.695 67.462ZM185.991 66.454H186.491V65.9366L185.974 65.9543L185.991 66.454ZM185.823 69.094L185.351 68.9288L185.347 68.9398L185.344 68.9511L185.823 69.094ZM184.599 70.99L184.327 70.5702L184.32 70.5749L184.313 70.5798L184.599 70.99ZM185.544 64.4633L185.496 64.7993L186.486 64.9407L186.534 64.6047L185.544 64.4633ZM185.981 64.3701C184.003 64.4106 182.367 64.6295 181.091 65.0422C179.816 65.4545 178.854 66.076 178.297 66.9541L179.141 67.4898C179.528 66.88 180.249 66.3654 181.399 65.9937C182.547 65.6225 184.075 65.4093 186.001 65.3699L185.981 64.3701ZM178.29 66.9647C177.759 67.8499 177.499 68.8525 177.499 69.958H178.499C178.499 69.0155 178.719 68.194 179.148 67.4792L178.29 66.9647ZM177.499 69.958V70.03H178.499V69.958H177.499ZM177.499 70.03C177.499 71.1773 177.97 72.1584 178.869 72.9493L179.529 72.1986C178.828 71.5816 178.499 70.8667 178.499 70.03H177.499ZM178.869 72.9493C179.794 73.7635 181.108 74.13 182.727 74.13V73.13C181.242 73.13 180.204 72.7924 179.529 72.1986L178.869 72.9493ZM182.783 74.1268C184.363 73.9472 185.584 73.1003 186.424 71.6483L185.558 71.1477C184.862 72.3517 183.907 72.9927 182.67 73.1332L182.783 74.1268ZM185.492 71.4324C185.565 72.4834 185.987 73.3107 186.818 73.7975L187.323 72.9345C186.843 72.6532 186.545 72.1686 186.49 71.3636L185.492 71.4324ZM187.057 73.8658L188.809 73.9138L188.837 72.9142L187.085 72.8662L187.057 73.8658ZM189.27 73.1904C188.804 72.2587 188.603 71.5407 188.603 71.014H187.603C187.603 71.7673 187.882 72.6493 188.376 73.6376L189.27 73.1904ZM188.603 71.014V65.59H187.603V71.014H188.603ZM188.603 65.59C188.603 63.8107 188.194 62.383 187.289 61.3993C186.376 60.4078 185.039 59.954 183.375 59.954V60.954C184.863 60.954 185.89 61.3561 186.553 62.0766C187.224 62.8049 187.603 63.9452 187.603 65.59H188.603ZM183.375 59.954H183.255V60.954H183.375V59.954ZM183.255 59.954C180.992 59.954 179.142 60.6197 177.765 61.9964L178.472 62.7035C179.624 61.5523 181.198 60.954 183.255 60.954V59.954ZM177.773 62.7107L178.973 63.8627L179.665 63.1413L178.465 61.9893L177.773 62.7107ZM179.66 63.8675C180.5 63.0839 181.722 62.658 183.399 62.658V61.658C181.556 61.658 180.058 62.1281 178.978 63.1364L179.66 63.8675ZM183.399 62.658C184.214 62.658 184.732 62.8425 185.044 63.1236C185.347 63.3957 185.539 63.8334 185.539 64.534H186.539C186.539 63.6505 186.291 62.9002 185.713 62.3803C185.146 61.8694 184.344 61.658 183.399 61.658V62.658ZM180.974 70.7233C180.808 70.4906 180.707 70.1751 180.707 69.742H179.707C179.707 70.3329 179.846 70.8653 180.16 71.3046L180.974 70.7233ZM180.707 69.742C180.707 69.0348 181.067 68.4187 181.951 67.8913L181.439 67.0326C180.338 67.6892 179.707 68.5931 179.707 69.742H180.707ZM181.956 67.8883C182.843 67.345 184.175 67.0163 186.008 66.9537L185.974 65.9543C184.063 66.0196 182.531 66.3629 181.434 67.0357L181.956 67.8883ZM185.491 66.454V68.35H186.491V66.454H185.491ZM185.491 68.35C185.491 68.4391 185.458 68.6222 185.351 68.9288L186.295 69.2591C186.412 68.9258 186.491 68.6128 186.491 68.35H185.491ZM185.344 68.9511C185.09 69.8011 184.734 70.3072 184.327 70.5702L184.871 71.4098C185.552 70.9687 186.012 70.2108 186.302 69.2369L185.344 68.9511ZM184.313 70.5798C183.901 70.867 183.272 71.042 182.367 71.042V72.042C183.382 72.042 184.241 71.8489 184.885 71.4002L184.313 70.5798ZM182.367 71.042C181.903 71.042 181.562 70.9995 181.326 70.9302C181.086 70.8598 181.01 70.7789 180.989 70.7455L180.145 71.2824C180.348 71.601 180.684 71.7841 181.044 71.8898C181.408 71.9965 181.855 72.042 182.367 72.042V71.042ZM197.763 71.158L198.256 71.0758L198.096 70.1174L197.409 70.8044L197.763 71.158ZM193.851 62.806V62.306H193.351V62.806H193.851ZM197.427 62.806V63.306H197.927V62.806H197.427ZM197.427 61.054H197.927V60.554H197.427V61.054ZM193.851 61.054H193.351V61.554H193.851V61.054ZM193.851 57.334H194.351V56.834H193.851V57.334ZM191.667 57.334V56.834H191.167V57.334H191.667ZM191.667 61.054V61.554H192.167V61.054H191.667ZM189.915 61.054V60.554H189.415V61.054H189.915ZM189.915 62.806H189.415V63.306H189.915V62.806ZM191.667 62.806H192.167V62.306H191.667V62.806ZM197.907 72.022L198.376 72.1934L198.421 72.0697L198.4 71.9398L197.907 72.022ZM197.409 70.8044C197.123 71.0904 196.636 71.282 195.843 71.282V72.282C196.777 72.282 197.57 72.0575 198.116 71.5115L197.409 70.8044ZM195.843 71.282C195.254 71.282 194.905 71.1368 194.7 70.9343C194.496 70.7329 194.351 70.3914 194.351 69.814H193.351C193.351 70.5486 193.537 71.191 193.997 71.6457C194.456 72.0992 195.103 72.282 195.843 72.282V71.282ZM194.351 69.814V62.806H193.351V69.814H194.351ZM193.851 63.306H197.427V62.306H193.851V63.306ZM197.927 62.806V61.054H196.927V62.806H197.927ZM197.427 60.554H193.851V61.554H197.427V60.554ZM194.351 61.054V57.334H193.351V61.054H194.351ZM193.851 56.834H191.667V57.834H193.851V56.834ZM191.167 57.334V61.054H192.167V57.334H191.167ZM191.667 60.554H189.915V61.554H191.667V60.554ZM189.415 61.054V62.806H190.415V61.054H189.415ZM189.915 63.306H191.667V62.306H189.915V63.306ZM191.167 62.806V70.15H192.167V62.806H191.167ZM191.167 70.15C191.167 71.3524 191.461 72.3465 192.137 73.0377C192.816 73.7309 193.795 74.034 194.979 74.034V73.034C193.954 73.034 193.277 72.7731 192.852 72.3382C192.424 71.9014 192.167 71.2036 192.167 70.15H191.167ZM194.979 74.034C195.817 74.034 196.545 73.9014 197.128 73.6002C197.725 73.2922 198.148 72.8183 198.376 72.1934L197.437 71.8505C197.297 72.2336 197.049 72.5158 196.669 72.7117C196.276 72.9145 195.724 73.034 194.979 73.034V74.034ZM198.4 71.9398L198.256 71.0758L197.269 71.2402L197.413 72.1042L198.4 71.9398ZM200.055 58.942H199.555V59.442H200.055V58.942ZM202.455 58.942V59.442H202.955V58.942H202.455ZM202.455 56.59H202.955V56.09H202.455V56.59ZM200.055 56.59V56.09H199.555V56.59H200.055ZM200.223 73.438H199.723V73.938H200.223V73.438ZM202.407 73.438V73.938H202.907V73.438H202.407ZM202.407 60.862H202.907V60.362H202.407V60.862ZM200.223 60.862V60.362H199.723V60.862H200.223ZM200.055 59.442H202.455V58.442H200.055V59.442ZM202.955 58.942V56.59H201.955V58.942H202.955ZM202.455 56.09H200.055V57.09H202.455V56.09ZM199.555 56.59V58.942H200.555V56.59H199.555ZM200.223 73.938H202.407V72.938H200.223V73.938ZM202.907 73.438V60.862H201.907V73.438H202.907ZM202.407 60.362H200.223V61.362H202.407V60.362ZM199.723 60.862V73.438H200.723V60.862H199.723ZM215.122 62.254L214.755 62.5933L214.755 62.5933L215.122 62.254ZM206.53 62.254L206.156 61.9224L206.156 61.9224L206.53 62.254ZM206.53 71.854L206.148 72.1763L206.148 72.1763L206.53 71.854ZM215.098 71.854L214.725 71.5212L214.722 71.5238L215.098 71.854ZM208.042 63.574L207.631 63.2886L207.631 63.2886L208.042 63.574ZM213.442 63.574L213.034 63.8639L213.037 63.8672L213.442 63.574ZM213.442 70.51L213.857 70.7889L213.862 70.7813L213.442 70.51ZM208.018 70.486L207.594 70.751L207.595 70.7527L208.018 70.486ZM215.489 61.9146C214.227 60.5488 212.654 59.858 210.802 59.858V60.858C212.374 60.858 213.681 61.4311 214.755 62.5933L215.489 61.9146ZM210.802 59.858C208.935 59.858 207.373 60.5485 206.156 61.9224L206.904 62.5856C207.927 61.4315 209.213 60.858 210.802 60.858V59.858ZM206.156 61.9224C204.944 63.2896 204.35 64.9965 204.35 67.006H205.35C205.35 65.2075 205.876 63.7464 206.904 62.5856L206.156 61.9224ZM204.35 67.006C204.35 69.0158 204.944 70.7493 206.148 72.1763L206.912 71.5316C205.876 70.3027 205.35 68.8041 205.35 67.006H204.35ZM206.148 72.1763C207.361 73.615 208.916 74.346 210.778 74.346V73.346C209.216 73.346 207.939 72.7489 206.912 71.5316L206.148 72.1763ZM210.778 74.346C212.639 74.346 214.214 73.616 215.473 72.1842L214.722 71.5238C213.646 72.7479 212.341 73.346 210.778 73.346V74.346ZM215.471 72.1867C216.743 70.7604 217.374 69.0233 217.374 67.006H216.374C216.374 68.7966 215.821 70.2916 214.725 71.5212L215.471 72.1867ZM217.374 67.006C217.374 64.9907 216.752 63.2811 215.489 61.9146L214.755 62.5933C215.828 63.7548 216.374 65.2133 216.374 67.006H217.374ZM208.452 63.8593C209.016 63.0479 209.76 62.658 210.73 62.658V61.658C209.428 61.658 208.379 62.2121 207.631 63.2886L208.452 63.8593ZM210.73 62.658C211.7 62.658 212.454 63.0486 213.035 63.8639L213.849 63.284C213.086 62.2114 212.031 61.658 210.73 61.658V62.658ZM213.037 63.8672C213.638 64.6969 213.95 65.7179 213.95 66.958H214.95C214.95 65.542 214.59 64.3071 213.847 63.2807L213.037 63.8672ZM213.95 66.958C213.95 68.197 213.638 69.2854 213.022 70.2386L213.862 70.7813C214.59 69.6545 214.95 68.3749 214.95 66.958H213.95ZM213.027 70.2311C212.422 71.1309 211.659 71.546 210.706 71.546V72.546C212.025 72.546 213.085 71.937 213.857 70.7888L213.027 70.2311ZM210.706 71.546C209.758 71.546 209.014 71.1284 208.441 70.2192L207.595 70.7527C208.333 71.9236 209.382 72.546 210.706 72.546V71.546ZM208.442 70.221C207.856 69.2833 207.558 68.2087 207.558 66.982H206.558C206.558 68.3793 206.9 69.6407 207.594 70.751L208.442 70.221ZM207.558 66.982C207.558 65.7396 207.863 64.7071 208.452 63.8593L207.631 63.2886C206.908 64.3289 206.558 65.5683 206.558 66.982H207.558ZM227.411 73.438H226.911V73.938H227.411V73.438ZM229.643 73.438V73.938H230.143V73.438H229.643ZM224.795 60.454L224.797 59.954H224.795V60.454ZM222.467 61.27L222.742 61.6874L222.752 61.6808L222.467 61.27ZM220.739 63.454H220.239L221.206 63.6313L220.739 63.454ZM220.739 60.502H221.239V60.002H220.739V60.502ZM218.507 60.502V60.002H218.007V60.502H218.507ZM218.507 73.438H218.007V73.938H218.507V73.438ZM220.739 73.438V73.938H221.239V73.438H220.739ZM221.795 63.694L222.17 64.0243L222.174 64.02L221.795 63.694ZM227.411 73.938H229.643V72.938H227.411V73.938ZM230.143 73.438V65.086H229.143V73.438H230.143ZM230.143 65.086C230.143 63.466 229.715 62.1598 228.776 61.2625C227.842 60.3695 226.484 59.9623 224.797 59.954L224.792 60.954C226.337 60.9616 227.404 61.3344 228.085 61.9855C228.762 62.6321 229.143 63.6339 229.143 65.086H230.143ZM224.795 59.954C223.903 59.954 223.029 60.2713 222.182 60.8592L222.752 61.6808C223.473 61.1806 224.151 60.954 224.795 60.954V59.954ZM222.191 60.8527C221.3 61.4407 220.659 62.2542 220.271 63.2766L221.206 63.6313C221.522 62.7978 222.033 62.1553 222.742 61.6873L222.191 60.8527ZM221.239 63.454V60.502H220.239V63.454H221.239ZM220.739 60.002H218.507V61.002H220.739V60.002ZM218.007 60.502V73.438H219.007V60.502H218.007ZM218.507 73.938H220.739V72.938H218.507V73.938ZM221.239 73.438V67.246H220.239V73.438H221.239ZM221.239 67.246C221.239 65.7435 221.577 64.6983 222.17 64.0243L221.419 63.3637C220.605 64.2897 220.239 65.6124 220.239 67.246H221.239ZM222.174 64.02C222.747 63.3538 223.579 62.994 224.747 62.994V61.994C223.355 61.994 222.219 62.4341 221.416 63.3679L222.174 64.02ZM224.747 62.994C225.53 62.994 226.036 63.2259 226.36 63.6169C226.699 64.026 226.911 64.6945 226.911 65.71H227.911C227.911 64.5814 227.679 63.642 227.13 62.979C226.566 62.298 225.739 61.994 224.747 61.994V62.994ZM226.911 65.71V73.438H227.911V65.71H226.911Z" fill="#747474"/>
</svg>
